<?xml version="1.0" encoding="UTF-8"?>
<svg id="Layer_1" data-name="Layer 1" xmlns="http://www.w3.org/2000/svg" viewBox="0 0 404.3 402.33">
  <defs>
    <style>
      .cls-1 {
        fill: #5b58a6;
      }
    </style>
  </defs>
  <path class="cls-1" d="M199.85,0c44.34,1.69,81.48,1.84,118.39,4.83,52.4,4.25,76.91,44.24,81.56,88.15,7.7,72.62,4.13,145.33-.27,217.9-3.3,54.45-38.46,86.72-92.84,88.18-51.87,1.4-103.75,2.85-155.63,3.26-21.44,.17-42.94-1.88-64.36-3.65-48.69-4.02-80.64-42.27-82.54-89.14C2.66,272.46-.48,235.37,.06,198.34c.6-40.72,2.55-81.65,7.66-122.02C12.73,36.83,43.29,9.15,82.67,5.89,124.01,2.47,165.57,1.63,199.85,0Zm49.19,108.28c-48.87,.56-91.78,41.74-92.63,88.78-.16,8.92,1.18,16.71,11.94,18.04,10.74,1.33,15.58-3.66,18.39-14.37,3.29-12.55,7.85-25.49,14.99-36.16,15.91-23.77,45.45-31.35,75.48-21.63,21.63,7,41.41,34.63,41.77,58.35,.36,23.46-23.04,53.65-47.38,61.26-6.34,1.98-13.71,2.86-18.57,6.77-4.59,3.7-9.6,11.34-8.67,16.13,.83,4.23,10.02,10.28,14.75,9.66,14.45-1.91,30.37-3.6,42.41-10.86,39.08-23.55,55.16-70.01,40.33-114.73-12.46-37.58-45.75-64.38-92.81-61.23Zm-93.3,187.81c19.33,2.17,39.47-3.92,55.83-20,18.23-17.91,34.36-37.35,35.52-64.63,.42-9.88-.45-20.36-13.41-21.89-11.71-1.39-13.93,6.88-16.62,16.42-3.13,11.11-7.87,22.29-14.27,31.86-16.48,24.63-44.93,32.93-74.39,23.31-22.69-7.41-43.6-34.64-43.57-56.75,.04-28.48,21.32-55.72,49.84-63.99,5.67-1.64,12.36-2.44,16.48-6.04,4.44-3.88,8.57-10.57,8.6-16.06,.02-3.09-8.64-9.09-13.12-8.83-13.11,.74-27.83,.75-38.78,6.76-38.52,21.17-62,60.98-45.5,118.19,9.9,34.3,44.57,64.9,93.38,61.68Z"/>
</svg>