<?xml version="1.0" encoding="UTF-8"?>
<svg id="Layer_1" data-name="Layer 1" xmlns="http://www.w3.org/2000/svg" viewBox="0 0 329.07 675.69">
  <path d="M329.07,335.07c0,93.19,0,186.38-.02,279.57,0,3.77-.16,7.56-.57,11.31-.37,3.38-1.27,6.69-2.35,9.94-1.19,3.54-2.68,6.96-4.5,10.21-3.19,5.67-7.14,10.75-12.13,14.95-2.12,1.79-4.29,3.56-6.61,5.08-2.36,1.54-4.91,2.8-7.42,4.11-3.03,1.59-6.27,2.7-9.57,3.52-2.68,.67-5.38,1.28-8.18,1.54-5.82,.53-11.64,.37-17.47,.37-66.93,.02-133.86,.02-200.79-.01-3.35,0-6.73-.14-10.05-.58-3.79-.5-7.49-1.44-11.09-2.85-3.08-1.21-6.15-2.45-9.02-4.08-5.57-3.16-10.42-7.2-14.7-11.97-4-4.46-7.12-9.45-9.55-14.92-1.58-3.56-2.75-7.23-3.65-11.02-1.22-5.11-1.35-10.28-1.4-15.47-.01-1.21,0-2.42,0-3.62C0,427.16,0,243.19,.03,59.22c0-3.4,.21-6.83,.65-10.21,.47-3.58,1.46-7.06,2.72-10.48,1.46-3.96,3.24-7.74,5.45-11.32,3.61-5.88,8.25-10.83,13.68-15.06,3.83-2.98,7.97-5.39,12.44-7.32,3.53-1.53,7.17-2.59,10.9-3.49C50.03,.33,54.25,.03,58.5,.03,127.27,.01,196.03,0,264.8,0c2.52,0,5.04,.01,7.56,.04,4.37,.05,8.72,.49,12.91,1.69,7.25,2.06,14.1,4.97,20.2,9.59,4.66,3.52,8.71,7.59,12.21,12.19,2.54,3.34,4.59,7,6.31,10.86,1.19,2.65,2.19,5.34,2.91,8.12,.71,2.73,1.57,5.45,1.69,8.31,.16,3.88,.45,7.76,.45,11.64,.03,90.88,.02,181.76,.02,272.64Zm-1.72,2.85c0-92.45,0-184.91,0-277.36,0-.63,.01-1.26,0-1.89-.17-7.12-1.14-14.08-3.76-20.78-1.25-3.2-2.76-6.21-4.52-9.14-3.96-6.58-9.09-12.04-15.32-16.49-1.49-1.07-3.04-2.06-4.63-2.98-4.1-2.37-8.4-4.28-12.99-5.51-2.07-.56-4.16-1.17-6.28-1.41-3.7-.41-7.4-.69-11.14-.68-69.03,.03-138.05,.02-207.08,.03-1.99,0-4-.08-5.98,.07-2.61,.19-5.23,.46-7.81,.89-3.52,.59-6.93,1.63-10.27,2.92-3.89,1.5-7.56,3.42-10.99,5.75-3.38,2.31-6.61,4.85-9.37,7.9-.98,1.09-1.85,2.28-2.84,3.37-2.74,3.03-4.75,6.55-6.6,10.13-1.73,3.34-3.3,6.79-4.08,10.53-.42,2-1.13,3.96-1.33,5.98-.37,3.91-.66,7.85-.66,11.78-.03,183.33-.03,366.66-.02,549.99,0,4.51-.02,9.01,.49,13.52,.44,3.89,1.3,7.67,2.55,11.33,1.93,5.63,4.75,10.83,8.35,15.62,3.14,4.2,6.83,7.81,10.92,11.04,1.48,1.17,3.01,2.33,4.66,3.21,4.48,2.4,8.95,4.87,13.95,6.08,2.24,.54,4.47,1.24,6.74,1.52,3.22,.39,6.48,.49,9.73,.63,2.2,.09,4.41,.02,6.61,.02,52.28,0,104.56,0,156.84,0,15.12,0,30.24,0,45.35,.04,3.89,0,7.77-.18,11.62-.68,2.18-.28,4.35-.74,6.46-1.34,3.33-.94,6.52-2.27,9.67-3.73,5.01-2.33,9.37-5.55,13.5-9.15,2.31-2.01,4.3-4.31,6.07-6.79,1.49-2.09,3.09-4.12,4.38-6.33,2.51-4.31,4.64-8.82,5.8-13.72,.42-1.79,1.01-3.55,1.21-5.37,.37-3.39,.6-6.79,.74-10.2,.12-2.94,.02-5.88,.02-8.82,0-89.99,0-179.97,0-269.96Z"/>
  <path d="M317.26,338.41c0,90.14,0,180.29,0,270.43,0,3.2-.08,6.4-.1,9.6-.03,3.8-.6,7.55-1.64,11.18-1.68,5.9-4.35,11.31-8.07,16.24-3.89,5.16-8.66,9.3-14.17,12.54-3.88,2.28-8.05,3.96-12.48,5.08-5.11,1.28-10.25,1.51-15.45,1.51-67.4,0-134.8,0-202.2-.03-3.51,0-7.04-.18-10.52-.59-3.38-.39-6.69-1.31-9.85-2.64-1.69-.71-3.48-1.23-5.07-2.12-7.78-4.36-14.33-10.1-18.86-17.85-1.84-3.15-3.49-6.41-4.63-9.96-1.98-6.14-2.54-12.4-2.46-18.77,.02-1.36,.03-2.73,.03-4.09,0-183.33,0-366.66,0-550,0-4.33,.58-8.6,1.74-12.76,1.71-6.17,4.5-11.84,8.52-16.88,2.97-3.72,6.37-6.98,10.2-9.77,1.68-1.23,3.58-2.17,5.41-3.19,1.19-.66,2.4-1.32,3.66-1.82,4.45-1.76,8.99-3.23,13.82-3.47,2.98-.15,5.97-.28,8.96-.3,7.09-.05,14.17-.02,21.26-.06,3.51-.02,6.64,1.07,9.3,3.28,2.86,2.37,4.13,5.59,4.35,9.27,.13,2.25,.46,4.49,1.45,6.56,2.58,5.41,6.9,8.28,12.86,8.7,.73,.05,1.47,.03,2.2,.03,33.07,0,66.14,0,99.21,.01,3.85,0,7.31-1.18,10.17-3.61,2.37-2.01,4.12-4.62,4.59-7.85,.27-1.81,.47-3.64,.79-5.44,1.24-6.83,6.33-10.68,12.73-10.9,1.78-.06,3.57,0,5.35-.01,6.67-.02,13.33-.1,20-.04,5.21,.05,10.37,.61,15.33,2.39,2.02,.73,4.05,1.43,6.02,2.28,1.24,.53,2.4,1.27,3.56,1.99,1.6,1,3.19,2.01,4.72,3.11,3.62,2.58,6.64,5.8,9.38,9.27,1.72,2.18,3.27,4.49,4.39,7.07,.58,1.34,1.45,2.57,1.95,3.94,2.23,6.04,3.59,12.24,3.59,18.74-.02,92.98-.02,185.96-.02,278.94Zm-303.78-.16h.01c0,91.82,0,183.64,0,275.46,0,5.16,.14,10.31,1.67,15.27,.92,3,1.88,6.04,3.35,8.79,1.79,3.36,3.85,6.64,6.57,9.38,2.18,2.19,4.34,4.42,6.71,6.4,2.79,2.31,5.98,4.03,9.25,5.62,3.64,1.77,7.49,2.76,11.39,3.46,3.76,.67,7.61,.69,11.45,.69,67.82-.04,135.63-.02,203.45-.03,4.2,0,8.34-.4,12.48-1.31,3.11-.69,6.01-1.85,8.88-3.09,4.32-1.87,8.11-4.62,11.53-7.84,1.87-1.76,3.73-3.58,5.27-5.62,1.77-2.33,3.38-4.78,4.76-7.4,3.23-6.11,4.91-12.58,5.19-19.44,.12-2.94,.11-5.88,.11-8.82,0-182.8,0-365.6,.01-548.4,0-4.95-.36-9.86-1.69-14.64-.69-2.47-1.43-4.97-2.56-7.26-2.09-4.24-4.63-8.22-7.99-11.63-2.51-2.54-5-5.05-7.98-7.09-2.23-1.52-4.61-2.7-6.97-3.96-3.6-1.93-7.52-2.99-11.48-3.66-3.34-.57-6.79-.65-10.19-.69-7.66-.09-15.33-.04-22.99,.02-3.12,.02-6.02,.83-8.31,3.14-1.93,1.95-3.35,4.12-3.55,6.98-.14,1.98-.42,3.98-.91,5.91-.8,3.14-2.72,5.6-5.08,7.8-1.99,1.86-4.32,2.99-6.93,3.46-1.95,.35-3.96,.46-5.95,.46-32.44,.03-64.88,.02-97.32,.02-.68,0-1.38,.08-2.04-.02-1.86-.28-3.79-.41-5.54-1.03-2.43-.86-4.5-2.34-6.33-4.26-2.28-2.38-3.63-5.1-4.09-8.32-.26-1.82-.36-3.68-.81-5.45-.35-1.39-.91-2.85-1.77-3.97-2.44-3.17-5.69-4.79-9.8-4.75-7.61,.06-15.22-.05-22.83,0-2.62,.01-5.23,.3-7.85,.41-2.11,.09-4.13,.59-6.17,1.1-3.38,.84-6.66,1.95-9.71,3.6-6.94,3.75-12.64,8.93-17.16,15.43-1.93,2.78-3.43,5.78-4.72,8.87-2.38,5.73-3.39,11.76-3.39,17.97,0,92.82,0,185.63,0,278.45Z"/>
</svg>